<svg width="42" height="43" viewBox="0 0 42 43" fill="none" xmlns="http://www.w3.org/2000/svg">
<rect y="0.180176" width="42" height="42" rx="21" fill="#1E1E1E"/>
<path d="M27.5572 25.4683C27.5784 25.4684 27.9835 25.2257 28.4573 24.929C28.9312 24.6322 29.3095 24.3717 29.2982 24.3501C29.2868 24.3285 29.0592 24.0212 28.7924 23.6672C28.2567 22.9564 27.741 22.0166 27.5124 21.3349C26.8001 19.2102 27.1279 17.004 28.4206 15.2231L28.7497 14.7696L28.1231 14.143L27.4965 13.5163L27.0823 13.8115C24.3686 15.7454 21.1161 15.5229 18.2325 13.2061C18.0443 13.0548 17.8833 12.938 17.8748 12.9466C17.7964 13.0249 16.8108 14.6365 16.811 14.6858C16.8112 14.7215 16.9835 14.8675 17.194 15.0101C19.5249 16.5894 22.1917 17.1043 24.2531 16.3732L24.7476 16.1979L17.8728 23.0977L13.5256 27.4607L14.7938 28.7289L19.168 24.3705L26.0517 17.512L25.8431 18.1491C25.3019 19.8017 25.5235 21.7604 26.4754 23.7351C26.7465 24.2977 27.477 25.468 27.5572 25.4683Z" fill="white"/>
</svg>
