<svg width="168" height="45" viewBox="0 0 168 45" fill="none" xmlns="http://www.w3.org/2000/svg">
<g clip-path="url(#clip0_6_1155)">
<mask id="mask0_6_1155" style="mask-type:luminance" maskUnits="userSpaceOnUse" x="0" y="0" width="44" height="45">
<path d="M44 0.680176H0V44.6802H44V0.680176Z" fill="white"/>
</mask>
<g mask="url(#mask0_6_1155)">
<path d="M38.4923 21.8013C38.0529 13.3939 31.2859 6.62691 22.8784 6.18749C22.4097 6.15821 22.0289 5.77738 22.0289 5.30867L21.9996 1.26606C21.9996 0.943824 21.7214 0.680176 21.3991 0.680176C15.7453 0.826647 10.4577 3.09695 6.44435 7.12491C2.43104 11.1529 0.146077 16.4259 -0.000394594 22.0796C-0.0150417 22.4019 0.248607 22.6802 0.585492 22.6802L4.6281 22.7095C5.09681 22.7095 5.47764 23.0756 5.50693 23.559C5.94634 31.9665 12.7133 38.7334 21.1208 39.1728C21.5895 39.2022 21.9703 39.5829 21.9703 40.0517L21.9996 44.0942C21.9996 44.4165 22.278 44.6802 22.6002 44.6802C28.2539 44.5337 33.5415 42.2634 37.5549 38.2355C41.5682 34.2221 43.8386 28.9345 43.9996 23.2808C44.0143 22.9584 43.7506 22.6802 43.4137 22.6802L39.3711 22.6508C38.9023 22.6362 38.5216 22.2701 38.4923 21.8013ZM16.5655 22.1529C16.8145 19.5603 18.8797 17.4951 21.4723 17.246C21.7652 17.2168 21.9996 16.9678 21.9996 16.6749L22.0289 12.6615C22.0289 12.1489 22.4683 11.7388 22.9809 11.7827C28.2392 12.2514 32.4283 16.4552 32.8971 21.6988C32.9411 22.2114 32.5309 22.6508 32.0183 22.6508L28.0049 22.6802C27.712 22.6802 27.4629 22.9145 27.4337 23.2074C27.1847 25.8001 25.1195 27.8653 22.5269 28.1143C22.234 28.1435 21.9996 28.3925 21.9996 28.6854L21.9703 32.6988C21.9703 33.2114 21.5309 33.6217 21.0183 33.5777C15.76 33.1089 11.5708 28.9051 11.1021 23.6615C11.0582 23.1489 11.4683 22.7095 11.981 22.7095L15.9943 22.6802C16.2872 22.6802 16.5363 22.4605 16.5655 22.1529ZM22.8491 33.6655C28.2539 33.2554 32.5749 28.9345 32.9849 23.5297C33.0143 23.0756 33.395 22.7242 33.8638 22.7242H37.5403C38.0529 22.7242 38.4484 23.1489 38.4191 23.6615C37.9357 31.9519 31.2713 38.6162 22.9809 39.0997C22.4683 39.1288 22.0436 38.7334 22.0436 38.2208V34.5443C22.0289 34.0903 22.395 33.7095 22.8491 33.6655ZM21.9556 7.13957V10.816C21.9556 11.2701 21.6042 11.6509 21.1501 11.6948C15.7453 12.1049 11.4244 16.4259 11.0142 21.8307C10.985 22.2848 10.6041 22.6362 10.1354 22.6362H6.45899C5.94634 22.6362 5.55087 22.2114 5.58016 21.6988C6.07817 13.4085 12.728 6.75873 21.0329 6.26074C21.5309 6.23144 21.9556 6.64156 21.9556 7.13957Z" fill="#1E1E1E"/>
</g>
</g>
<path d="M53.608 15.0202H55.768V30.2602H64.768V32.1802H53.608V15.0202ZM73.4095 19.9402H75.3295V32.1802H73.4095V30.7162H73.3615C72.7135 31.5802 71.4175 32.5162 69.3295 32.5162C67.0975 32.5162 65.2255 31.2922 65.2255 28.4842V19.9402H67.1455V28.0042C67.1455 29.5882 67.8895 30.8362 69.8095 30.8362C71.9695 30.8362 73.4095 29.4682 73.4095 27.5722V19.9402ZM89.8092 19.6042C92.2812 19.6042 93.4812 21.0682 93.4812 23.6362V32.1802H91.5612V24.1162C91.5612 22.5322 91.2492 21.2842 89.3292 21.2842C87.4092 21.2842 86.2092 22.6522 86.2092 24.5482V32.1802H84.2892V24.1162C84.2892 22.5322 83.9772 21.2842 82.0572 21.2842C80.1372 21.2842 78.9372 22.6522 78.9372 24.5482V32.1802H77.0172V19.9402H78.9372V21.4042H78.9852C79.6332 20.5402 80.6892 19.6042 82.5372 19.6042C84.2892 19.6042 85.2972 20.3482 85.8012 21.7162H85.8492C86.6892 20.5642 87.9612 19.6042 89.8092 19.6042ZM96.2884 17.5642C95.7604 17.5642 95.0884 17.1562 95.0884 16.4122C95.0884 15.6682 95.7604 15.2602 96.2884 15.2602C96.8404 15.2602 97.4884 15.6682 97.4884 16.4122C97.4884 17.1562 96.8404 17.5642 96.2884 17.5642ZM95.3284 19.9402H97.2484V32.1802H95.3284V19.9402ZM105.168 19.6042C107.4 19.6042 109.272 20.8282 109.272 23.6362V32.1802H107.352V24.1162C107.352 22.5322 106.608 21.2842 104.688 21.2842C102.528 21.2842 101.087 22.6522 101.087 24.5482V32.1802H99.1675V19.9402H101.087V21.4042H101.136C101.783 20.5402 103.08 19.6042 105.168 19.6042ZM118.375 23.0602C118.375 22.1002 117.847 21.2842 115.879 21.2842C113.551 21.2842 112.783 21.9562 112.663 23.7322H110.743C110.863 21.3802 112.327 19.6042 115.879 19.6042C118.207 19.6042 120.295 20.5162 120.295 23.4682V29.4202C120.295 30.3802 120.463 30.9082 121.687 30.7642V32.1082C121.183 32.2762 120.919 32.3002 120.559 32.3002C119.407 32.3002 118.711 31.9882 118.375 30.6442H118.327C117.559 31.7962 116.191 32.5162 114.175 32.5162C111.703 32.5162 110.143 31.1002 110.143 29.0362C110.143 26.2522 112.207 25.5322 115.375 24.9322C117.439 24.5482 118.375 24.2842 118.375 23.0602ZM114.367 30.8362C116.647 30.8362 118.375 29.8042 118.375 27.4522V25.4122C118.015 25.7722 116.839 26.1082 115.543 26.3722C113.167 26.8762 112.063 27.4762 112.063 28.9402C112.063 30.1402 112.783 30.8362 114.367 30.8362ZM122.45 15.0202H124.61V30.2602H133.61V32.1802H122.45V15.0202ZM139.23 30.8362C141.678 30.8362 142.59 29.2522 142.806 28.4122H144.726C144.102 30.6922 142.35 32.5162 139.302 32.5162C135.582 32.5162 133.326 29.9002 133.326 26.0602C133.326 21.9802 135.63 19.6042 139.206 19.6042C143.046 19.6042 144.918 22.2202 144.918 26.5642H135.246C135.246 28.7722 136.566 30.8362 139.23 30.8362ZM139.206 21.2842C136.902 21.2842 135.246 22.9162 135.246 24.8842H142.998C142.998 22.9162 141.51 21.2842 139.206 21.2842ZM151.859 19.6042C154.091 19.6042 155.963 20.8282 155.963 23.6362V32.1802H154.043V24.1162C154.043 22.5322 153.299 21.2842 151.379 21.2842C149.219 21.2842 147.779 22.6522 147.779 24.5482V32.1802H145.859V19.9402H147.779V21.4042H147.827C148.475 20.5402 149.771 19.6042 151.859 19.6042ZM162.546 24.9082C164.73 25.4362 167.202 25.7962 167.202 28.8202C167.202 31.0522 165.162 32.5162 162.378 32.5162C158.634 32.5162 156.906 30.7402 156.786 28.1002H158.706C158.826 29.4682 159.306 30.8362 162.378 30.8362C164.466 30.8362 165.282 29.7562 165.282 28.9402C165.282 27.1642 163.674 27.0682 161.922 26.6362C160.05 26.1802 157.266 25.9642 157.266 23.0842C157.266 21.1642 158.97 19.6042 161.85 19.6042C164.898 19.6042 166.53 21.3322 166.722 23.4442H164.802C164.61 22.5082 164.154 21.2842 161.85 21.2842C160.122 21.2842 159.186 21.9802 159.186 22.9402C159.186 24.3802 160.842 24.5002 162.546 24.9082Z" fill="#1E1E1E"/>
<defs>
<clipPath id="clip0_6_1155">
<rect width="44" height="44" fill="white" transform="translate(0 0.680176)"/>
</clipPath>
</defs>
</svg>
